<?xml version="1.0" encoding="UTF-8"?>
<svg id="Layer_1" data-name="Layer 1" xmlns="http://www.w3.org/2000/svg" viewBox="0 0 34 34">
  <defs>
    <style>
      .cls-1 {
        fill: #002397;
        stroke-width: 0px;
      }
    </style>
  </defs>
  <path class="cls-1" d="m21.82,21.82h0c.52,0,.94-.42.94-.94v-4.9c0-1.59-1-2.95-2.42-3.48v-1.58c.55-.18.94-.69.94-1.29v-1.74c0-1.78-1.45-3.23-3.23-3.23h-7.87c-1.78,0-3.23,1.45-3.23,3.23v1.74c0,.6.4,1.12.95,1.29v1.57c-1.42.53-2.43,1.89-2.43,3.49v11.1c0,2.06,1.67,3.73,3.73,3.73h2.66c.52,0,.94-.42.94-.94h0c0-.52-.42-.94-.94-.94h-2.66c-1.01,0-1.84-.83-1.84-1.84v-11.1c0-1.01.82-1.83,1.83-1.83h9.85c1.02,0,1.84.83,1.84,1.84v4.89c0,.52.42.94.94.94Zm-3.36-9.58h-8.67v-1.24h8.67v1.24Zm.94-3.14h-10.55v-1.22c0-.74.6-1.34,1.34-1.34h7.87c.74,0,1.34.6,1.34,1.34v1.22Z"/>
  <path class="cls-1" d="m28.58,25.93h-5.78v-.43c0-.09,0-.19-.04-.28-.12-.48-.56-.83-1.08-.83h-.54c0-.06,0-.11-.02-.16,0,0,0,0,0,0,0-.07-.01-.14-.03-.2-.02-.12-.04-.24-.07-.35-.05-.18-.09-.36-.16-.52-.19-.5-.46-.94-.81-1.29-.65-.66-1.53-1.01-2.54-1-1.52.02-2.64,1.04-3.14,2.81-.03.11-.06.23-.09.35-.03.11-.05.24-.07.36h-.4c-.58,0-1.04.46-1.04,1.03v1.46c0,.75.21,1.45.58,2.04.69,1.12,1.93,1.88,3.35,1.88h2.16c1.68,0,3.13-1.07,3.68-2.56h6.03c.6,0,1.08-.52,1.08-1.15s-.48-1.15-1.08-1.15Zm-12.2-2.25c.23-.51.58-.91,1.15-.92h.02c.49,0,.87.14,1.16.43.12.13.24.29.31.48.06.1.09.23.13.35,0,.03.02.07.03.09l-2.98.04s.03-.09.05-.13c.03-.12.08-.24.12-.35Zm2.49,5.23h-2.16c-1.12,0-2.03-.92-2.03-2.03v-.6h6.19v.79c0,.1,0,.21-.03.3-.23.88-1.02,1.53-1.97,1.53Z"/>
</svg>