<?xml version="1.0" encoding="UTF-8"?>
<svg id="Layer_1" data-name="Layer 1" xmlns="http://www.w3.org/2000/svg" viewBox="0 0 24 24.1">
  <defs>
    <style>
      .cls-1 {
        fill: #fd5c35;
      }

      .cls-1, .cls-2, .cls-3 {
        stroke-width: 0px;
      }

      .cls-2 {
        fill: none;
      }

      .cls-3 {
        fill: #a09fa9;
      }
    </style>
  </defs>
  <path class="cls-1" d="m17,20c-2.21,0-4-1.79-4-4s1.79-4,4-4,4,1.79,4,4-1.79,4-4,4Zm0-6c-1.1,0-2,.9-2,2s.9,2,2,2,2-.9,2-2-.9-2-2-2Z"/>
  <path class="cls-1" d="m7,20c-2.21,0-4-1.79-4-4s1.79-4,4-4,4,1.79,4,4-1.79,4-4,4Zm0-6c-1.1,0-2,.9-2,2s.9,2,2,2,2-.9,2-2-.9-2-2-2Z"/>
  <path class="cls-3" d="m17,17c-.43,0-.83-.28-.96-.71l-2.79-9.29h-1.26c-.55,0-1-.45-1-1s.45-1,1-1h2.74l3.21,10.71c.16.53-.14,1.09-.67,1.25-.1.03-.19.04-.29.04Z"/>
  <path class="cls-3" d="m7,17c-.55,0-1-.45-1-1v-7c0-.55.45-1,1-1s1,.45,1,1v7c0,.55-.45,1-1,1Z"/>
  <path class="cls-3" d="m7,14c-.4,0-.79-.25-.94-.65-.19-.52.07-1.09.58-1.29l8-3c.51-.19,1.09.07,1.29.58.19.52-.07,1.09-.58,1.29l-8,3c-.12.04-.23.06-.35.06Z"/>
  <path class="cls-3" d="m9,10h-3c-.55,0-1-.45-1-1s.45-1,1-1h3c.55,0,1,.45,1,1s-.45,1-1,1Z"/>
  <rect class="cls-2" width="24" height="24.1"/>
</svg>