<svg width="41" height="40" viewBox="0 0 41 40" fill="none" xmlns="http://www.w3.org/2000/svg">
<g clip-path="url(#clip0_526_127)">
<path d="M32.167 28.3337H12.167C10.8409 28.3337 9.56914 27.8069 8.63146 26.8692C7.69378 25.9315 7.16699 24.6597 7.16699 23.3337V11.667C7.16699 10.3409 7.69378 9.06914 8.63146 8.13146C9.56914 7.19378 10.8409 6.66699 12.167 6.66699H32.167C33.4931 6.66699 34.7648 7.19378 35.7025 8.13146C36.6402 9.06914 37.167 10.3409 37.167 11.667V23.3337C37.167 24.6597 36.6402 25.9315 35.7025 26.8692C34.7648 27.8069 33.4931 28.3337 32.167 28.3337Z" fill="#FFA78A"/>
<path d="M32.1663 25.0003H25.4997C25.0576 25.0003 24.6337 24.8247 24.3212 24.5122C24.0086 24.1996 23.833 23.7757 23.833 23.3337C23.833 22.8916 24.0086 22.4677 24.3212 22.1551C24.6337 21.8426 25.0576 21.667 25.4997 21.667H32.1663C32.6084 21.667 33.0323 21.8426 33.3449 22.1551C33.6574 22.4677 33.833 22.8916 33.833 23.3337C33.833 23.7757 33.6574 24.1996 33.3449 24.5122C33.0323 24.8247 32.6084 25.0003 32.1663 25.0003Z" fill="#252438"/>
<path d="M37.2168 11.6338H7.2168V14.9671H37.2168V11.6338Z" fill="#252438"/>
<path d="M12.1663 36.3829L11.683 36.2329C9.41972 35.5482 7.43578 34.1555 6.02278 32.2595C4.60978 30.3635 3.84225 28.0642 3.83301 25.6996V20.1829L12.1663 16.8496L20.4997 20.1829V25.6996C20.492 28.067 19.7231 30.3691 18.3065 32.2659C16.8899 34.1626 14.9008 35.5535 12.633 36.2329L12.1663 36.3829ZM7.16634 22.4329V25.7663C7.17198 27.3296 7.65338 28.8543 8.54652 30.1374C9.43966 31.4205 10.7022 32.4014 12.1663 32.9496C13.6305 32.4014 14.893 31.4205 15.7862 30.1374C16.6793 28.8543 17.1607 27.3296 17.1663 25.7663V22.4329L12.1663 20.4329L7.16634 22.4329Z" fill="#252438"/>
</g>
<defs>
<clipPath id="clip0_526_127">
<rect width="40" height="40" fill="white" transform="translate(0.5)"/>
</clipPath>
</defs>
</svg>
